Coordinates
version=1
nRows=9
nColumns=24
inDegrees=yes

Units are S.I. units (second, meters, Newtons, ...)
Angles are in degrees.

endheader
time	pelvis_tilt	pelvis_list	pelvis_rotation	pelvis_tx	pelvis_ty	pelvis_tz	hip_flexion_r	hip_adduction_r	hip_rotation_r	knee_angle_r	ankle_angle_r	subtalar_angle_r	mtp_angle_r	hip_flexion_l	hip_adduction_l	hip_rotation_l	knee_angle_l	ankle_angle_l	subtalar_angle_l	mtp_angle_l	lumbar_extension	lumbar_bending	lumbar_rotation
      3.60500000	    -16.97003108	     -5.64708079	      3.73306984	     -1.91419778	     -0.04350790	     -0.36228109	     45.33056700	      2.32734865	    -18.21032437	    -16.38071087	     -1.59758414	     -2.11804207	     17.56222233	     -2.49611728	     -5.61167680	     -2.70403369	    -17.88468513	      5.37864909	     11.19802117	     10.74865743	     21.84796003	      0.87680211	    -23.46628685
      3.61000000	    -16.93555358	     -5.93211441	      3.90697528	     -1.90573045	     -0.04439864	     -0.36199130	     45.29219510	      2.52329963	    -18.04982675	    -17.08053324	     -2.22229905	     -2.89889858	     17.56986439	     -2.47331759	     -6.09310067	     -2.63162581	    -18.86518051	      4.61553907	     11.67443716	     10.84089313	     22.01115696	      1.12232133	    -23.77566493
      3.61500000	    -16.95732680	     -6.21396952	      3.87506220	     -1.89718264	     -0.04538142	     -0.36137649	     45.33194568	      2.90142358	    -17.58101215	    -17.78316415	     -3.05267189	     -4.04715179	     17.60524050	     -2.40379529	     -6.60304925	     -2.95899723	    -19.85024383	      3.71096973	     12.24282670	     11.48016461	     22.23569069	      1.43127116	    -23.87994056
      3.62000000	    -17.02507516	     -6.53072308	      3.92153573	     -1.88864666	     -0.04633624	     -0.36085421	     45.42333540	      3.25347915	    -17.14670150	    -18.50769003	     -3.88893676	     -5.27302477	     17.52269258	     -2.20584834	     -7.15252798	     -3.18127012	    -20.89837728	      2.62665572	     12.67514893	     12.41345661	     22.51454266	      1.73486464	    -24.09365142
      3.62500000	    -17.03840524	     -6.80390218	      3.98531173	     -1.88028335	     -0.04717222	     -0.36030165	     45.50153323	      3.56860801	    -16.66150662	    -19.31811970	     -4.71616249	     -6.53352580	     17.21221704	     -2.02353881	     -7.67031292	     -3.36256685	    -21.90458773	      1.25305127	     12.94570472	     14.37874488	     22.69724575	      1.99335214	    -24.31510148
      3.63000000	    -17.15114023	     -7.14022425	      3.97273492	     -1.87186235	     -0.04809988	     -0.35969022	     45.71483334	      3.98216835	    -16.16318892	    -20.18167221	     -5.55657497	     -7.93057219	     16.81767958	     -1.66172041	     -8.26202874	     -3.64403051	    -23.11034516	     -0.04634819	     13.40187145	     15.34640175	     23.00219443	      2.33923515	    -24.45402715
      3.63500000	    -17.18409867	     -7.43542304	      4.01400499	     -1.86353569	     -0.04885893	     -0.35906809	     45.86189152	      4.35567501	    -15.56186113	    -21.12317034	     -6.18956405	     -9.29007340	     15.82805845	     -1.34433069	     -8.82536914	     -3.85681278	    -24.23269146	     -1.74303412	     13.56025025	     17.59912234	     23.19902200	      2.61821158	    -24.67341304
      3.64000000	    -17.30950260	     -7.79277940	      3.97386404	     -1.85523069	     -0.04973011	     -0.35841801	     46.13343132	      4.81715303	    -15.00205610	    -22.09727295	     -6.78857319	    -10.69920039	     15.10127661	     -0.83684157	     -9.46323544	     -4.18345241	    -25.58783500	     -3.32144565	     13.91665601	     18.73724071	     23.49204355	      2.99284865	    -24.81481807
      3.64500000	    -17.30226113	     -8.07853349	      4.01058002	     -1.84702378	     -0.05034897	     -0.35780472	     46.28268469	      5.19471282	    -14.44481757	    -23.18403775	     -7.07262603	    -11.90435252	     13.37195918	     -0.44895389	    -10.01704615	     -4.31495446	    -26.78676692	     -5.37394406	     13.79154906	     21.35495260	     23.62198972	      3.27304883	    -25.00119797
